<?xml version="1.0" encoding="utf-8"?>
<!-- Svg Vector Icons : http://www.onlinewebfonts.com/icon -->
<!DOCTYPE svg PUBLIC "-//W3C//DTD SVG 1.1//EN" "http://www.w3.org/Graphics/SVG/1.1/DTD/svg11.dtd">
<svg version="1.1" xmlns="http://www.w3.org/2000/svg" xmlns:xlink="http://www.w3.org/1999/xlink" x="0px" y="0px" viewBox="0 0 1000 1000" enable-background="new 0 0 1000 1000" xml:space="preserve">
<metadata> Svg Vector Icons : http://www.onlinewebfonts.com/icon </metadata>
<g><path d="M578,980.7H420.6L395,823c-16.5-5.4-32.7-12.2-48.2-20.1l-131,95.4L104.4,786.9l95.3-131c-8.1-15.9-15-32.4-20.5-49.3l-160-25.2V423.9l160-25.2c5.6-17.2,12.6-34.1,21-50.3l-96.5-132.6l111.4-111.4l133.4,97.1c14.9-7.5,30.5-14,46.4-19.2l25.6-163h157.5l25.6,162.6c16.6,5.4,33,12.1,48.7,20.1L784.3,107l111.3,111.3l-94.9,131.8c7.8,15.3,14.4,31.3,19.8,47.6l160.3,26.1v157.5l-160.3,26.1c-5.2,15.9-11.7,31.6-19.2,46.6l93.7,130.2L783.6,895.6l-129.4-93.2c-16.3,8.4-33.2,15.4-50.5,21L578,980.7L578,980.7z M430,969.7h138.7l25.2-154.8l3.3-1c18.8-5.9,37.3-13.6,54.9-22.9l3-1.6l127.3,91.7l98-98L791.2,659l-3.2-3.2l1.8-3.6c8.6-16.6,15.7-34,21.3-51.7l1.2-3.9h6L969.7,572V433.3l-150.9-24.6h-6.5l-1.2-3.9c-5.7-18.2-13.1-36-22-53l-1.9-3.6l4.3-4.3l89.6-124.4l-98-98L659,210.8l-4.6,4.6l-3.6-1.9c-17.2-9-35.3-16.5-53.6-22.2l-3.3-1l-25.2-160H430.1l-24.6,156.6v3.6l-3.8,1.2c-17.5,5.5-34.7,12.7-51.1,21.1l-3.6,1.9l-2.8-2.8l-127.9-93l-98,98l95,130.5l-1.6,3.1c-9.3,17.5-17,36-22.8,54.8l-1,3.3L30.4,433.3v138.6l157.4,24.8l1,3.3c5.8,18.4,13.3,36.5,22.3,53.8l1.6,3l-93.8,128.9l98,98l128.9-93.8l3,1.6c16.9,8.9,34.6,16.3,52.7,22l3.9,1.2v3.6L430,969.7L430,969.7z"/><path d="M585.9,990H412.7l-26-160c-13.2-4.6-26.4-10-39.1-16.3l-132.8,96.7L92.2,787.9L188.9,655c-6.4-13-12-26.5-16.6-40.2L10,589.3V416l162.3-25.6c4.8-14,10.5-27.8,17.2-41.2L91.6,214.8L214.1,92.2l135.3,98.4c12.1-5.8,24.6-11,37.2-15.4l26-165.3H586l26,164.8c13.4,4.6,26.7,10.1,39.6,16.3l133.7-96.2l122.4,122.4L811.4,351c6.1,12.5,11.5,25.4,16,38.5L990,416.1v173.2l-162.6,26.5c-4.4,12.7-9.6,25.3-15.5,37.5L907,785.3L784.6,907.7l-131.2-94.5c-13.4,6.7-27.3,12.5-41.4,17.3L585.9,990z M437.9,960.4h122.9l24.9-152.6l8.8-2.7c18.3-5.7,36.2-13.2,53.4-22.2l8.1-4.2l125.6,90.4l86.9-86.9l-87-119.9l-4.8-4.8l4.9-9.6c8.3-16.1,15.3-33,20.7-50.3l3.2-10.4h12.8l142.1-23.2V441.2l-143.2-23.3l-11.8,0.1l-3.3-10.4c-5.5-17.7-12.7-35-21.3-51.4l-5-9.6l9.1-9.1l84.1-116.9l-86.9-86.9l-121.2,88.4l-4.8,4.8l-9.6-5c-16.7-8.8-34.3-16-52.1-21.6l-8.8-2.7L560.7,39.5H438l-23.4,148.8l0.1,8.9l-10.3,3.3c-17,5.4-33.7,12.3-49.6,20.5l-9.6,5l-7.6-7.6l-120.4-87.4l-86.8,86.8l93.8,128.8l-4.3,8.1c-9,17-16.5,34.9-22.2,53.2l-2.7,8.8L39.6,441.2V564l155.3,24.4l2.7,8.8c5.6,17.9,12.9,35.5,21.7,52.3l4.3,8.1L131,784.8l86.8,86.8L345,779.1l8.1,4.2c16.4,8.6,33.6,15.8,51.2,21.4l10.3,3.3v10.4L437.9,960.4z"/><path d="M499.4,700.5c-109.7,0-198.9-89.2-198.9-198.9c0-109.7,89.2-198.9,198.9-198.9c109.7,0,198.9,89.2,198.9,198.9C698.4,611.2,609.1,700.5,499.4,700.5L499.4,700.5z M499.4,313.6c-103.6,0-187.9,84.3-187.9,187.9c0,103.6,84.3,187.9,187.9,187.9c103.6,0,187.9-84.3,187.9-187.9C687.3,397.9,603,313.6,499.4,313.6L499.4,313.6z"/><path d="M499.4,709.7c-114.8,0-208.2-93.4-208.2-208.2c0-114.8,93.4-208.2,208.2-208.2c114.8,0,208.2,93.4,208.2,208.2C707.6,616.3,614.2,709.7,499.4,709.7z M499.4,322.9c-98.5,0-178.6,80.1-178.6,178.6c0,98.5,80.1,178.6,178.6,178.6c98.5,0,178.6-80.1,178.6-178.6C678.1,403,597.9,322.9,499.4,322.9z"/></g>
</svg>